# xmcd
#
# Track frame offsets: 
#        150
#        15456
#        29183
#        44541
#
# Disc length: 1100 seconds
#
# Revision: 1
# Processed by: cddbd v1.5.2PL0 Copyright (c) Steve Scherf et al.
# Submitted via: ExactAudioCopyFreeDBPlugin 1.0
#
DISCID=2f044a04
DTITLE=Mariah Carey - It's Like That [Japan CD]
DYEAR=2005
DGENRE=Soul and R&B
TTITLE0=It's Like That [Main]
TTITLE1=It's Like That [No Rap]
TTITLE2=It's Like That [David Morales Radio Mix]
TTITLE3=It's Like That [David Morales Club Mix]
EXTD=YEAR: 2005
EXTT0=
EXTT1=
EXTT2=
EXTT3=
PLAYORDER=
